<mxfile host="app.diagrams.net" modified="2021-05-17T10:48:24.607Z" agent="5.0 (Macintosh)" etag="uBnz26-o-BdwV4RqWRyF" version="14.6.13" type="github">
  <diagram id="sd066UKES_7Aq1pJ9Ihq" name="Page-1">
    <mxGraphModel dx="946" dy="970" grid="1" gridSize="10" guides="1" tooltips="1" connect="1" arrows="1" fold="1" page="1" pageScale="1" pageWidth="827" pageHeight="1169" math="0" shadow="0">
      <root>
        <mxCell id="0" />
        <mxCell id="1" parent="0" />
        <mxCell id="I-y4QlHzyOzyjz6Vk-dk-1" value="&lt;h1&gt;&lt;font style=&quot;font-size: 24px&quot;&gt;&lt;b&gt;&lt;font style=&quot;font-size: 24px&quot;&gt;trace&lt;/font&gt;&lt;/b&gt;&lt;/font&gt;&lt;/h1&gt;/api/accounttransfer?sd=1617206400000&amp;amp;ed=1618416000000&amp;amp;net=ETH&amp;amp;fm=0x48d9df53347e81acf2ef542f1b33778664370631&amp;amp;recall_switch=true&amp;amp;level_switch=false&amp;amp;limit=50&amp;amp;level=1&amp;amp;sort=amount&amp;amp;order=desc" style="rounded=1;whiteSpace=wrap;html=1;" parent="1" vertex="1">
          <mxGeometry x="150" y="10" width="340" height="130" as="geometry" />
        </mxCell>
        <mxCell id="5zIYFA6XRT577n5AHELY-3" value="&lt;h1&gt;&lt;font style=&quot;font-size: 18px&quot;&gt;eagle&lt;/font&gt;&lt;/h1&gt;&lt;p&gt;/egale/nginx/app/src/v2/rest/content/holmes.lua&lt;br&gt;handle_txs(req, res)&lt;br&gt;&lt;br&gt;&lt;br&gt;&lt;/p&gt;" style="rounded=1;whiteSpace=wrap;html=1;" vertex="1" parent="1">
          <mxGeometry x="180" y="191" width="280" height="99" as="geometry" />
        </mxCell>
        <mxCell id="5zIYFA6XRT577n5AHELY-4" value="&lt;h1&gt;&lt;font style=&quot;font-size: 18px&quot;&gt;eagle&lt;/font&gt;&lt;/h1&gt;&lt;p&gt;/egale/nginx/app/src/v2/rest/content/etl.lua&lt;br&gt;level_find_txs(net, init_addr, level, sd, ed, limit, sort, order, symbol)&lt;br&gt;&lt;br&gt;&lt;br&gt;&lt;/p&gt;" style="rounded=1;whiteSpace=wrap;html=1;" vertex="1" parent="1">
          <mxGeometry x="185" y="360" width="270" height="100" as="geometry" />
        </mxCell>
        <mxCell id="5zIYFA6XRT577n5AHELY-5" value="" style="endArrow=classic;startArrow=classic;html=1;entryX=0.5;entryY=1;entryDx=0;entryDy=0;exitX=0.5;exitY=0;exitDx=0;exitDy=0;" edge="1" parent="1" source="5zIYFA6XRT577n5AHELY-3" target="I-y4QlHzyOzyjz6Vk-dk-1">
          <mxGeometry width="50" height="50" relative="1" as="geometry">
            <mxPoint x="120" y="240" as="sourcePoint" />
            <mxPoint x="170" y="190" as="targetPoint" />
          </mxGeometry>
        </mxCell>
        <mxCell id="5zIYFA6XRT577n5AHELY-6" value="" style="endArrow=classic;startArrow=classic;html=1;entryX=0.5;entryY=1;entryDx=0;entryDy=0;exitX=0.5;exitY=0;exitDx=0;exitDy=0;" edge="1" parent="1" source="5zIYFA6XRT577n5AHELY-4" target="5zIYFA6XRT577n5AHELY-3">
          <mxGeometry width="50" height="50" relative="1" as="geometry">
            <mxPoint x="50" y="420" as="sourcePoint" />
            <mxPoint x="100" y="370" as="targetPoint" />
          </mxGeometry>
        </mxCell>
        <mxCell id="5zIYFA6XRT577n5AHELY-8" value="&lt;h1&gt;&lt;font style=&quot;font-size: 18px&quot;&gt;eagle&lt;/font&gt;&lt;/h1&gt;&lt;p&gt;/egale/nginx/app/src/v2/rest/dao/holmes.lua&lt;br&gt;level_find_txs(net, init_addr, level, sd, ed, limit, sort, order, symbol)&lt;br&gt;find_txs(net, fms, tos, st, et, limit, sort_by, order, symbol, offset, minmum)&lt;br&gt;&lt;br&gt;&lt;/p&gt;" style="rounded=1;whiteSpace=wrap;html=1;" vertex="1" parent="1">
          <mxGeometry x="185" y="514.5" width="270" height="140" as="geometry" />
        </mxCell>
        <mxCell id="5zIYFA6XRT577n5AHELY-10" value="" style="endArrow=classic;startArrow=classic;html=1;entryX=0.5;entryY=1;entryDx=0;entryDy=0;exitX=0.5;exitY=0;exitDx=0;exitDy=0;" edge="1" parent="1" source="5zIYFA6XRT577n5AHELY-8" target="5zIYFA6XRT577n5AHELY-4">
          <mxGeometry width="50" height="50" relative="1" as="geometry">
            <mxPoint x="320" y="580" as="sourcePoint" />
            <mxPoint x="320" y="490" as="targetPoint" />
          </mxGeometry>
        </mxCell>
        <mxCell id="5zIYFA6XRT577n5AHELY-13" value="&lt;h1&gt;&lt;font style=&quot;font-size: 24px&quot;&gt;&lt;b&gt;&lt;font style=&quot;font-size: 24px&quot;&gt;trace&lt;/font&gt;&lt;/b&gt;&lt;/font&gt;&lt;/h1&gt;/api/accountinfo?address=0xf4a2eff88a408ff4&lt;br&gt;c4550148151c33c93442619e" style="rounded=1;whiteSpace=wrap;html=1;" vertex="1" parent="1">
          <mxGeometry x="630" y="10" width="260" height="90" as="geometry" />
        </mxCell>
        <mxCell id="5zIYFA6XRT577n5AHELY-14" value="&lt;h1&gt;&lt;font style=&quot;font-size: 18px&quot;&gt;eagle&lt;/font&gt;&lt;/h1&gt;&lt;p&gt;/egale/nginx/app/src/v2/rest/content/holmes.lua&lt;br&gt;handle_search(req, res)&lt;br&gt;&lt;br&gt;&lt;br&gt;&lt;/p&gt;" style="rounded=1;whiteSpace=wrap;html=1;" vertex="1" parent="1">
          <mxGeometry x="620" y="150" width="280" height="99" as="geometry" />
        </mxCell>
        <mxCell id="5zIYFA6XRT577n5AHELY-16" value="" style="endArrow=classic;startArrow=classic;html=1;entryX=0.5;entryY=1;entryDx=0;entryDy=0;exitX=0.5;exitY=0;exitDx=0;exitDy=0;" edge="1" parent="1" source="5zIYFA6XRT577n5AHELY-14" target="5zIYFA6XRT577n5AHELY-13">
          <mxGeometry width="50" height="50" relative="1" as="geometry">
            <mxPoint x="560" y="220" as="sourcePoint" />
            <mxPoint x="610" y="170" as="targetPoint" />
          </mxGeometry>
        </mxCell>
        <mxCell id="5zIYFA6XRT577n5AHELY-17" value="" style="endArrow=classic;startArrow=classic;html=1;entryX=0.5;entryY=1;entryDx=0;entryDy=0;exitX=0.5;exitY=0;exitDx=0;exitDy=0;" edge="1" parent="1" target="5zIYFA6XRT577n5AHELY-14">
          <mxGeometry width="50" height="50" relative="1" as="geometry">
            <mxPoint x="760" y="294" as="sourcePoint" />
            <mxPoint x="600" y="340" as="targetPoint" />
          </mxGeometry>
        </mxCell>
        <mxCell id="5zIYFA6XRT577n5AHELY-18" value="&lt;h1&gt;&lt;font style=&quot;font-size: 18px&quot;&gt;eagle&lt;/font&gt;&lt;/h1&gt;&lt;p&gt;/egale/nginx/app/src/modules/blockchain.lua&lt;br&gt;verify_address(addr)&lt;br&gt;&lt;br&gt;&lt;br&gt;&lt;/p&gt;" style="rhombus;whiteSpace=wrap;html=1;" vertex="1" parent="1">
          <mxGeometry x="600" y="290" width="320" height="170" as="geometry" />
        </mxCell>
        <mxCell id="5zIYFA6XRT577n5AHELY-21" value="" style="endArrow=classic;html=1;strokeColor=none;" edge="1" parent="1">
          <mxGeometry width="50" height="50" relative="1" as="geometry">
            <mxPoint x="940" y="530" as="sourcePoint" />
            <mxPoint x="990" y="480" as="targetPoint" />
          </mxGeometry>
        </mxCell>
        <mxCell id="5zIYFA6XRT577n5AHELY-22" value="N" style="endArrow=classic;html=1;exitX=1;exitY=0.5;exitDx=0;exitDy=0;" edge="1" parent="1" source="5zIYFA6XRT577n5AHELY-18">
          <mxGeometry width="50" height="50" relative="1" as="geometry">
            <mxPoint x="980" y="420" as="sourcePoint" />
            <mxPoint x="903" y="200" as="targetPoint" />
            <Array as="points">
              <mxPoint x="1020" y="375" />
              <mxPoint x="1020" y="200" />
            </Array>
          </mxGeometry>
        </mxCell>
      </root>
    </mxGraphModel>
  </diagram>
</mxfile>
